<svg width="32" height="32" viewBox="0 0 32 32" fill="none" xmlns="http://www.w3.org/2000/svg">
<path d="M9 11.2H10.6H23.4" stroke="#4F4F4F" stroke-width="1.67" stroke-linecap="round" stroke-linejoin="round"/>
<path d="M13 11.2V9.6C13 9.17565 13.1685 8.76869 13.4686 8.46863C13.7687 8.16857 14.1756 8 14.6 8H17.8C18.2243 8 18.6313 8.16857 18.9313 8.46863C19.2314 8.76869 19.4 9.17565 19.4 9.6V11.2M21.8 11.2V22.4C21.8 22.8243 21.6314 23.2313 21.3313 23.5314C21.0313 23.8314 20.6243 24 20.2 24H12.2C11.7756 24 11.3687 23.8314 11.0686 23.5314C10.7685 23.2313 10.6 22.8243 10.6 22.4V11.2H21.8Z" stroke="#4F4F4F" stroke-width="1.67" stroke-linecap="round" stroke-linejoin="round"/>
<path d="M14.6 15.2V20" stroke="#4F4F4F" stroke-width="1.67" stroke-linecap="round" stroke-linejoin="round"/>
<path d="M17.8 15.2V20" stroke="#4F4F4F" stroke-width="1.67" stroke-linecap="round" stroke-linejoin="round"/>
</svg>
